<?xml version="1.0" encoding="utf-8"?>
<!-- Generator: Adobe Illustrator 22.0.0, SVG Export Plug-In . SVG Version: 6.00 Build 0)  -->
<svg version="1.1" id="Capa_1" xmlns="http://www.w3.org/2000/svg" xmlns:xlink="http://www.w3.org/1999/xlink" x="0px" y="0px"
	 viewBox="0 0 300 300" style="enable-background:new 0 0 300 300;" xml:space="preserve">
<style type="text/css">
	.st0{opacity:0.5;fill:none;stroke:#000000;stroke-width:0.25;stroke-miterlimit:10;}
</style>
<path class="st0" d="M275.6,216.8c0.1-0.4,0.2-0.7,0.3-1c-1.9,0.9-3.5,1.8-4.5,2.8c-6.6,6-12.6-1.2-15.6-2.4
	c-2.8-1.1-15.5-5.9-17.2-6.5c-0.1,0-0.2-0.1-0.3-0.3c-1-1.9-9.5-18.5-8.9-30.4c0.6-12.6,7.2-10.8,9-12.6c1.7-1.7-4.4-16.4-4.8-17.3
	c0,0,0-0.1,0-0.1l-4.2-22c0-0.1,0-0.2,0-0.3c0.7-2.3,10.3-34.3,15.5-41.8c3.6-5.2,2.4-22.1,1.2-32.6c0-0.2-0.2-0.4-0.4-0.5
	c-5.7-1.3-14-3.7-15-4c-0.1,0-0.1-0.1-0.2-0.1l-5.9-4.7c0,0,0,0,0,0c-0.2-0.2-5.4-4.8-6.6-6.6c-0.5-0.8-0.6-1.8-0.5-2.7
	c0.1-0.5-0.6-0.8-1-0.4c-1.6,1.7-4,4.4-5.1,5.5c-1.5,1.5-5.8,0.4-6.9,0.1c-0.2-0.1-0.3-0.2-0.4-0.4c-0.3-1-1.5-4.4-3.5-6.9
	c-2.4-3,0-3.6,0-7.8c0-4-7.1-3.6-7.7-3.6c0,0-0.1,0-0.1,0c-0.7-0.1-7.7-1.3-7.7-4.2v-5.5c0,0-0.4-0.7-0.8-0.5l-6,3.5
	c-0.2,0.1-0.4,0.1-0.6,0l-5.6-3.9c0,0-0.1-0.1-0.1-0.1l-5.7-6.8c-0.1-0.2-0.4-0.2-0.6-0.2C163.8,3.2,154.8,6,150.5,6
	c-4,0-1.3,2.5-0.3,3.3c0.2,0.2,0.3,0.4,0.2,0.6c-0.8,1.9-4.2,10.2-5.2,13.3c-0.9,2.8-0.4,4.9-0.1,5.7c0.1,0.2,0,0.4-0.1,0.5
	c-0.8,0.9-3.5,4.2-4,5.7c-0.5,1.6-2.5,3.6-2.9,4.1c-0.1,0.1-0.1,0.1-0.2,0.1l-16.6,5.9l-6.8,2.8c-0.2,0.1-0.4,0.3-0.3,0.6l0.5,6.8
	c0,0.3,0.3,0.5,0.6,0.7h4.4c0.5-0.2,0.8,0.5,0.4,0.8l-1.7,1.4l-2.8,2.3c-0.1,0.1-0.2,0.1-0.4,0h-6.9c0,0.1-0.1,0.1-0.1,0.1
	c-0.7-0.1-8.7-1.7-16.1,0c-7,1.6-5.7-1.6-5.4-2.3c0-0.1-0.2-0.2-0.2-0.2v-5c0-2.6-2.2-4.2-2.8-4.6c-0.1-0.1-0.2-0.1-0.3-0.1h-2.7
	c-0.1,0-0.1,0-0.2,0l-7.8-2.8c-0.2-0.1-0.5,0-0.6,0.2l-2,2.5c-0.1,0.1-0.1,0.3-0.1,0.4l1.1,9.7c0,0.1,0.1,0.2,0.2,0.3l5.7,5.7
	c0.1,0.1,0.1,0.2,0.2,0.3c0.2,1.5,1.1,10.6,0,11.7c-0.8,0.8-0.5,2.5-0.2,3.4c0.1,0.4-0.2,0.7-0.5,0.7h-5.9c-0.1,0-0.2,0-0.2,0
	c-0.9,0.4-6.6,3-9.3,4.1c-2.9,1.2-5.9-2.3-11.7-4.1c-5-1.5-7.5-5.6-8.1-6.7c-0.1-0.2-0.3-0.3-0.5-0.3h-7.9c-0.3,0-0.6,0.3-0.6,0.6
	v5.3c0,0.3-0.3,0.6-0.6,0.6h-8.3c-0.1,0-0.1,0-0.2,0L12,76.6c-0.2-0.1-0.4,0-0.6,0.1l-7.7,7.8c-0.2,0.2-0.2,0.5-0.1,0.7l3.2,4.3
	c0,0,0.1,0.1,0.1,0.1l5.6,4.1c0.4,0.3,0.3,0.8-0.2,1l-4.5,1.5c-0.5,0.2-0.5,0.8-0.1,1.1c5.1,2.2,4.1,7.1,3.2,9.5
	c-0.2,0.5,0.3,0.9,0.8,0.7l6.2-2.9c0.1-0.1,0.3-0.2,0.3-0.3l1.5-4.4c0.1-0.4,0.6-0.5,0.9-0.3l17.2,13.8c0,0,0.1,0,0.1,0.1l9.4,4.7
	c0,0,0.1,0,0.1,0.1c0.6,0.5,6.6,5.3,8.3,5.3h2.5c0.3,0,0.5,0.2,0.6,0.5l1.1,10.8c0,0,0,0.1,0,0.1l1.2,4.1c0,0,0,0.1,0,0.1l0.6,6.3
	c0,0.1,0.1,0.2,0.1,0.3l7.6,8.8c0,0,0.1,0.1,0.1,0.1l12.8,8.1c0.2,0.1,0.3,0.3,0.3,0.5v2c0,0-0.1,0-0.1,0l-0.6,7
	c0,0.1,0,0.1-0.1,0.2l-3.3,6.7c-0.1,0.2-0.1,0.5,0.1,0.7l12.7,12.1c0.1,0.1,0.1,0.2,0.2,0.3l2.3,11.1c0.1,0.7-0.8,1-1.1,0.3
	l-4.2-10.3c0-0.1-0.1-0.1-0.1-0.2l-5.1-5.1c-0.3-0.3-0.9-0.2-1,0.3l-9.3,50.7c0,0.1,0,0.2-0.1,0.2l-11.4,16
	c-0.2,0.3-0.1,0.7,0.3,0.9l6.1,2c0.2,0.1,0.4,0.3,0.4,0.5l0.4,6.4c0,0.6,0.9,0.7,1.1,0.1h0c0.1-0.4,0.7-0.6,1-0.2l5.1,5.6
	c0.1,0.1,0.3,0.2,0.4,0.2h3.2c0.1,0,0.2,0.1,0.3,0.1l7,4.7c0,0,0,0,0.1,0l3.9,3.3c0.2,0.1,0.4,0.2,0.6,0.1l4.1-1.6
	c0.2-0.1,0.4,0,0.6,0.1l6.1,5.6c0.1,0.1,0.4,0.4,0.4,0.4h4.8h5.4h7.2c0.3,0,0.6-0.3,0.6-0.6v-4.6c0-0.4,0.4-0.7,0.8-0.5l14.2,5.7
	c0,0,0,0,0.1,0l6.5,3.6c0,0,0.1,0,0.1,0.1l2.9,2.3c0,0,0.1,0.1,0.1,0.1l8.3,3.6c0,0,0.1,0,0.1,0c0.7,0.1,9.1,1.8,11.4,3
	c2.2,1.1,5.9,0.2,6.5,0c0.1,0,0.1,0,0.2-0.1l4-2.8c0.1-0.1,0.2-0.1,0.3-0.1h4.6h5.3c0.4,0,0.6-0.3,0.6-0.7l-1.1-5.3c0,0,0,0,0-0.1
	l-1.1-3.2c-0.1-0.2-0.3-0.4-0.5-0.4h-1.7c-0.4,0-0.7-0.5-0.5-0.9l4.8-8.1c0,0,0-0.1,0.1-0.1c0.5-0.6,7.2-7.8,8.4-10.1
	c1.2-2.4,7.2-4.8,9-8.4c1.6-3.2,5.1-0.7,5.8-0.1c0.1,0.1,0.2,0.1,0.3,0.1h3.7c0.2,0,0.3,0.1,0.4,0.2c0.6,0.7,2.9,3,7,4
	c4.4,1.1,6.8,1.2,7.1,1.2c0,0,0.1,0,0.1,0c0.8,0.2,9.7,2.4,14.3,3c4.8,0.6,6.6,4.8,8.4,4.8s6-2.4,8.4-4.8c2.4-2.4,4.8,1.2,6.6,0
	c1.4-0.9,2.8-0.4,3.3-0.1c0.2,0.1,0.4,0.1,0.5,0l7.4-4.5c0.1-0.1,0.2-0.1,0.2-0.2l6.5-12.4c0-0.1,0.1-0.1,0.1-0.1l2.3-2.3l6.5-5.9
	c0.1-0.1,0.1-0.2,0.2-0.3l2.7-8.6c0.1-0.4-0.2-0.8-0.6-0.7c-1.2,0.1-3.6,0.1-7.5-0.7c-6-1.2,0,1.8-4.2,0c-4.2-1.8-6.6-1.2-9-6
	C272,218,275,219.2,275.6,216.8z"/>
</svg>
